<svg id="Layer_1" data-name="Layer 1" xmlns="http://www.w3.org/2000/svg" viewBox="0 0 512 512"><title>video-film-reel-glyph</title><path d="M210.13,45.87C94.07,45.87,0,140,0,256S94.07,466.13,210.13,466.13,420.29,372,420.29,256,326.22,45.87,210.13,45.87Zm3.89,56a50.94,50.94,0,1,1-51,50.95A51,51,0,0,1,214,101.9Zm-97.07,199a50.93,50.93,0,1,1,50.9-51A51,51,0,0,1,116.94,300.86ZM214,397.93A50.94,50.94,0,1,1,265,347,51,51,0,0,1,214,397.93Zm97.1-97.07a50.93,50.93,0,1,1,50.9-51A51,51,0,0,1,311.11,300.86Z" fill="#5b5b5f"/><path d="M511.42,450.86s-96.49-5.21-91.65-87.51c0,0-16.4,40.59-38.19,55.09C408.18,437.86,430.1,460,512,457.7Z" fill="#5b5b5f"/></svg>